<svg xmlns="http://www.w3.org/2000/svg" viewBox="0 0 1000 750" width="1000" height="750" role="img" aria-label="Illustration of styled shelves and decor">
<rect width="1000" height="750" fill="#eee7df"/>
<g stroke="#2a2724" stroke-width="2.4" fill="none" stroke-linecap="round" stroke-linejoin="round" opacity=".62">
  <!-- shelves -->
  <path d="M220 280h560M220 470h560"/>
  <rect x="220" y="280" width="560" height="12" rx="4" fill="#ded2c3"/>
  <rect x="220" y="470" width="560" height="12" rx="4" fill="#ded2c3"/>
  <!-- top shelf objects -->
  <path d="M290 280v-70c0-26 14-38 30-38s30 12 30 38v70z"/>
  <path d="M420 280v-46a26 26 0 0 1 52 0v46z"/>
  <path d="M540 280c-10-40 6-64 22-64s32 24 22 64z"/>
  <!-- branches -->
  <path d="M660 280v-96M660 224c-22-8-30-28-26-46 18 4 30 20 26 46M660 238c20-10 26-30 20-46-16 6-26 24-20 46"/>
  <!-- lower shelf objects -->
  <path d="M300 470v-56a30 30 0 0 1 60 0v56z"/>
  <!-- basket -->
  <path d="M440 470l12-58h96l12 58z" fill="#e3d8ca"/>
  <path d="M452 434h84" opacity=".5"/>
  <!-- leaning canvas -->
  <path d="M640 470l24-120 96 14-26 106z" fill="#e6dccf"/>
  <path d="M664 430l30-32 24 28 22-20" />
  <!-- floor -->
  <path d="M120 620h760"/>
</g>
<g fill="#f04a7c" opacity=".9"><path d="M420 280v-46a26 26 0 0 1 52 0v46z"/></g>
<path d="M420 280v-46a26 26 0 0 1 52 0v46z" fill="none" stroke="#2a2724" stroke-width="2.4" opacity=".62"/>
</svg>
